
      <svg viewBox="0 0 1200 700" xmlns="http://www.w3.org/2000/svg" role="img" aria-label="Database, table, row, and column diagram">
        <rect width="1200" height="700" fill="#0b0f14"/>
        <rect x="60" y="80" width="1080" height="540" rx="24" fill="#111827" stroke="#2b3648" stroke-width="3"/>
        <text x="96" y="132" fill="#93c5fd" font-family="monospace" font-size="32">postgres database</text>
        <rect x="120" y="190" width="420" height="320" rx="18" fill="#0f172a" stroke="#60a5fa" stroke-width="3"/>
        <text x="150" y="235" fill="#e5e7eb" font-family="monospace" font-size="26">countries table</text>
        <line x1="120" y1="260" x2="540" y2="260" stroke="#334155" stroke-width="3"/>
        <line x1="235" y1="260" x2="235" y2="510" stroke="#334155" stroke-width="3"/>
        <line x1="360" y1="260" x2="360" y2="510" stroke="#334155" stroke-width="3"/>
        <text x="150" y="305" fill="#9ca3af" font-family="monospace" font-size="22">id</text>
        <text x="265" y="305" fill="#9ca3af" font-family="monospace" font-size="22">name</text>
        <text x="395" y="305" fill="#9ca3af" font-family="monospace" font-size="22">region</text>
        <text x="150" y="360" fill="#ffffff" font-family="monospace" font-size="22">1</text>
        <text x="265" y="360" fill="#ffffff" font-family="monospace" font-size="22">Canada</text>
        <text x="395" y="360" fill="#ffffff" font-family="monospace" font-size="22">Americas</text>
        <text x="150" y="420" fill="#ffffff" font-family="monospace" font-size="22">2</text>
        <text x="265" y="420" fill="#ffffff" font-family="monospace" font-size="22">Japan</text>
        <text x="395" y="420" fill="#ffffff" font-family="monospace" font-size="22">Asia</text>
        <text x="150" y="480" fill="#ffffff" font-family="monospace" font-size="22">3</text>
        <text x="265" y="480" fill="#ffffff" font-family="monospace" font-size="22">Kenya</text>
        <text x="395" y="480" fill="#ffffff" font-family="monospace" font-size="22">Africa</text>
        <rect x="660" y="200" width="440" height="210" rx="18" fill="#0f172a" stroke="#94a3b8" stroke-width="3"/>
        <text x="690" y="245" fill="#e5e7eb" font-family="monospace" font-size="26">one row</text>
        <line x1="660" y1="272" x2="1100" y2="272" stroke="#334155" stroke-width="3"/>
        <text x="690" y="328" fill="#ffffff" font-family="monospace" font-size="23">id: 1</text>
        <text x="840" y="328" fill="#ffffff" font-family="monospace" font-size="23">name: Canada</text>
        <text x="690" y="378" fill="#ffffff" font-family="monospace" font-size="23">region: Americas</text>
        <line x1="540" y1="335" x2="655" y2="335" stroke="#60a5fa" stroke-width="4"/>
        <polygon points="650,330 660,335 650,340" fill="#60a5fa"/>
        <text x="690" y="150" fill="#f8fafc" font-family="monospace" font-size="24">a database contains tables</text>
      </svg>