
      <svg viewBox="0 0 1200 700" xmlns="http://www.w3.org/2000/svg" role="img" aria-label="Query flow diagram">
        <rect width="1200" height="700" fill="#0b0f14"/>
        <text x="70" y="100" fill="#93c5fd" font-family="monospace" font-size="30">SELECT query flow</text>
        <rect x="80" y="200" width="170" height="90" rx="16" fill="#0f172a" stroke="#60a5fa" stroke-width="3"/>
        <text x="125" y="255" fill="#ffffff" font-family="monospace" font-size="26">FROM</text>
        <rect x="310" y="200" width="170" height="90" rx="16" fill="#0f172a" stroke="#34d399" stroke-width="3"/>
        <text x="365" y="255" fill="#ffffff" font-family="monospace" font-size="26">WHERE</text>
        <rect x="540" y="200" width="200" height="90" rx="16" fill="#0f172a" stroke="#f59e0b" stroke-width="3"/>
        <text x="575" y="255" fill="#ffffff" font-family="monospace" font-size="26">ORDER BY</text>
        <rect x="800" y="200" width="140" height="90" rx="16" fill="#0f172a" stroke="#f472b6" stroke-width="3"/>
        <text x="845" y="255" fill="#ffffff" font-family="monospace" font-size="26">LIMIT</text>
        <line x1="250" y1="245" x2="305" y2="245" stroke="#60a5fa" stroke-width="4"/>
        <polygon points="300,240 310,245 300,250" fill="#60a5fa"/>
        <line x1="480" y1="245" x2="535" y2="245" stroke="#60a5fa" stroke-width="4"/>
        <polygon points="530,240 540,245 530,250" fill="#60a5fa"/>
        <line x1="740" y1="245" x2="795" y2="245" stroke="#60a5fa" stroke-width="4"/>
        <polygon points="790,240 800,245 790,250" fill="#60a5fa"/>
        <text x="80" y="370" fill="#e5e7eb" font-family="monospace" font-size="24">read rows first, then filter, sort, and trim the result</text>
      </svg>