<svg xmlns="http://www.w3.org/2000/svg" viewBox="0 0 680 370" width="680" height="370" role="img" aria-labelledby="title desc">
  <title id="title">Relation shape diagram</title>
  <desc id="desc">A table-shaped grid showing tuples and attributes.</desc>
  <rect width="680" height="370" fill="#111111"/>
  <rect x="28" y="28" width="624" height="314" rx="18" fill="none" stroke="#ff5ca8" stroke-width="2"/>
  <g fill="#ffffff" font-family="ui-monospace, Menlo, Consolas, monospace" font-size="14">
    <text x="50" y="58">RELATION</text>
    <text x="186" y="58">ATTRIBUTE</text>
    <text x="340" y="58">ATTRIBUTE</text>
    <text x="496" y="58">ATTRIBUTE</text>
    <text x="60" y="118">tuple 1</text>
    <text x="60" y="170">tuple 2</text>
    <text x="60" y="222">tuple 3</text>
    <text x="60" y="274">tuple 4</text>
  </g>
  <g stroke="#353535" stroke-width="1">
    <line x1="28" y1="84" x2="652" y2="84"/>
    <line x1="140" y1="84" x2="140" y2="342"/>
    <line x1="294" y1="84" x2="294" y2="342"/>
    <line x1="448" y1="84" x2="448" y2="342"/>
    <line x1="28" y1="136" x2="652" y2="136"/>
    <line x1="28" y1="188" x2="652" y2="188"/>
    <line x1="28" y1="240" x2="652" y2="240"/>
    <line x1="28" y1="292" x2="652" y2="292"/>
  </g>
  <g fill="#bfbfbf" font-family="ui-monospace, Menlo, Consolas, monospace" font-size="12">
    <text x="166" y="118">full_name</text>
    <text x="320" y="118">country</text>
    <text x="474" y="118">created_at</text>
    <text x="166" y="170">row value</text>
    <text x="320" y="170">row value</text>
    <text x="474" y="170">row value</text>
    <text x="166" y="222">row value</text>
    <text x="320" y="222">row value</text>
    <text x="474" y="222">row value</text>
    <text x="166" y="274">row value</text>
    <text x="320" y="274">row value</text>
    <text x="474" y="274">row value</text>
  </g>
</svg>
