<svg xmlns="http://www.w3.org/2000/svg" viewBox="0 0 680 370" width="680" height="370" role="img" aria-labelledby="title desc">
  <title id="title">Session 01 8-panel concept map</title>
  <desc id="desc">Eight panels show relation theory, psql, inspection, table creation, insert, select, and verification.</desc>
  <rect width="680" height="370" fill="#111111"/>
  <g fill="none" stroke="#ff5ca8" stroke-width="1.5">
    <rect x="12" y="12" width="656" height="346" rx="16"/>
    <rect x="22" y="22" width="144" height="132" rx="12"/>
    <rect x="176" y="22" width="144" height="132" rx="12"/>
    <rect x="330" y="22" width="144" height="132" rx="12"/>
    <rect x="484" y="22" width="144" height="132" rx="12"/>
    <rect x="22" y="166" width="144" height="132" rx="12"/>
    <rect x="176" y="166" width="144" height="132" rx="12"/>
    <rect x="330" y="166" width="144" height="132" rx="12"/>
    <rect x="484" y="166" width="144" height="132" rx="12"/>
  </g>
  <g fill="#ffffff" font-family="ui-monospace, Menlo, Consolas, monospace" font-size="14">
    <text x="34" y="52">01 RELATION</text>
    <text x="188" y="52">02 psql</text>
    <text x="342" y="52">03 \d</text>
    <text x="496" y="52">04 CREATE TABLE</text>
    <text x="34" y="196">05 INSERT</text>
    <text x="188" y="196">06 SELECT</text>
    <text x="342" y="196">07 VERIFY STATE</text>
    <text x="496" y="196">08 REFLECT</text>
  </g>
  <g fill="#bfbfbf" font-family="ui-monospace, Menlo, Consolas, monospace" font-size="11">
    <text x="34" y="77">table = relation</text>
    <text x="188" y="77">connect to server</text>
    <text x="342" y="77">read catalog</text>
    <text x="496" y="77">define shape</text>
    <text x="34" y="221">one tuple in</text>
    <text x="188" y="221">one tuple out</text>
    <text x="342" y="221">state changed</text>
    <text x="496" y="221">why it matters</text>
  </g>
  <g stroke="#ff5ca8" stroke-width="2" fill="none">
    <path d="M166 88 H176"/>
    <path d="M320 88 H330"/>
    <path d="M474 88 H484"/>
    <path d="M94 154 V166"/>
    <path d="M248 154 V166"/>
    <path d="M402 154 V166"/>
    <path d="M556 154 V166"/>
    <path d="M166 232 H176"/>
    <path d="M320 232 H330"/>
    <path d="M474 232 H484"/>
  </g>
</svg>
